{"title":"Brick Mansions (2014) 720p Blu-Ray x264 [Dual-Audio][English DD","uid":11021607,"size":971954748,"categoryP":"video","categoryS":"hd___movies","magnet":"?xt=urn:btih:90601bd2f38a8f4d650c9ccfedfbd7081aca63fd&amp;dn=Brick+Mansions+%282014%29+720p+Blu-Ray+x264+%5BDual-Audio%5D%5BEnglish+DD+&amp;tr=udp%3A%2F%2Ftracker.openbittorrent.com%3A80&amp;tr=udp%3A%2F%2Fopen.demonii.com%3A1337&amp;tr=udp%3A%2F%2Ftracker.coppersurfer.tk%3A6969&amp;tr=udp%3A%2F%2Fexodus.desync.com%3A6969","seeders":3,"leechers":4,"uploader":"inovai","files":3,"time":1410593922,"description":"Brick Mansions (2014) 720p Blu-Ray x264 [Dual-Audio][English DD 5.1 + Hindi DD 5.1] - Mafiaking - TeamTNT\n\nCover:\n    &lt;a href=&quot;\nhttp://forum.primetimeshow.in/viewtopic.php?f=7&amp;t=598&quot; rel=&quot;nofollow&quot; target=&quot;_NEW&quot;&gt;\nhttp://forum.primetimeshow.in/viewtopic.php?f=7&amp;t=598&lt;/a&gt;\n\n\nGENRE: Action | Crime | Drama\n\nScreenshots:\n &lt;a href=&quot;\nhttp://m.primetimeshow.in/share-74F4_5413D7CF.html&quot; rel=&quot;nofollow&quot; target=&quot;_NEW&quot;&gt;\nhttp://m.primetimeshow.in/share-74F4_5413D7CF.html&lt;/a&gt;\n &lt;a href=&quot;\nhttp://m.primetimeshow.in/share-7FF5_5413D7CF.html&quot; rel=&quot;nofollow&quot; target=&quot;_NEW&quot;&gt;\nhttp://m.primetimeshow.in/share-7FF5_5413D7CF.html&lt;/a&gt;\n &lt;a href=&quot;\nhttp://m.primetimeshow.in/share-3CB2_5413D7CF.html&quot; rel=&quot;nofollow&quot; target=&quot;_NEW&quot;&gt;\nhttp://m.primetimeshow.in/share-3CB2_5413D7CF.html&lt;/a&gt;\n &lt;a href=&quot;\nhttp://m.primetimeshow.in/share-0253_5413D7CF.html&quot; rel=&quot;nofollow&quot; target=&quot;_NEW&quot;&gt;\nhttp://m.primetimeshow.in/share-0253_5413D7CF.html&lt;/a&gt;\n &lt;a href=&quot;\nhttp://m.primetimeshow.in/share-F1B6_5413D7CF.html&quot; rel=&quot;nofollow&quot; target=&quot;_NEW&quot;&gt;\nhttp://m.primetimeshow.in/share-F1B6_5413D7CF.html&lt;/a&gt;\n\n\nGeneral\nUnique ID : 219737900944807649754811630939787475012 (0xA54FFAF7360282A8BA949D7F8DE7B844)\nComplete name : Brick Mansions (2014) 720p Blu-Ray x264 [Dual-Audio][English DD 5.1 + Hindi DD 5.1] - Mafiaking - TeamTNT.mkv\nFormat : Matroska\nFormat version : Version 4 / Version 2\nFile size : 915 MiB\nDuration : 1h 30mn\nOverall bit rate : 1 418 Kbps\nMovie name : Brick Mansions (2014) 720p Blu-Ray x264 [Dual-Audio][English DD 5.1 + Hindi DD 5.1] - Mafiaking - TeamTNT\nEncoded date : UTC 2014-09-12 10:44:25\nWriting application : mkvmerge v7.0.0 ('Where We Going') 32bit built on Jun 9 2014 15:08:34\nWriting library : libebml v1.3.0 + libmatroska v1.4.1\n\n\nVideo\nID : 1\nFormat : AVC\nFormat/Info : Advanced Video Codec\nFormat profile : &lt;a class=&quot;__cf_email__&quot; href=&quot;/cdn-cgi/l/email-protection&quot; data-cfemail=&quot;521a3b353a121e617c63&quot;&gt;[email&amp;#160;protected]&lt;/a&gt;&lt;script cf-hash='f9e31' type=&quot;text/javascript&quot;&gt;\n/* &lt;![CDATA[ */!function(){try{var t=&quot;currentScript&quot;in document?document.currentScript:function(){for(var t=document.getElementsByTagName(&quot;script&quot;),e=t.length;e--;)if(t[e].getAttribute(&quot;cf-hash&quot;))return t[e]}();if(t&amp;&amp;t.previousSibling){var e,r,n,i,c=t.previousSibling,a=c.getAttribute(&quot;data-cfemail&quot;);if(a){for(e=&quot;&quot;,r=parseInt(a.substr(0,2),16),n=2;a.length-n;n+=2)i=parseInt(a.substr(n,2),16)^r,e+=String.fromCharCode(i);e=document.createTextNode(e),c.parentNode.replaceChild(e,c)}}}catch(u){}}();/* ]]&gt; */&lt;/script&gt;\nFormat settings, CABAC : Yes\nFormat settings, ReFrames : 4 frames\nCodec ID : V_MPEG4/ISO/AVC\nDuration : 1h 30mn\nBit rate : 1 001 Kbps\nWidth : 1 280 pixels\nHeight : 536 pixels\nDisplay aspect ratio : 2.40:1\nFrame rate mode : Constant\nFrame rate : 24.000 fps\nColor space : YUV\nChroma subsampling : 4:2:0\nBit depth : 8 bits\nScan type : Progressive\nBits/(Pixel*Frame) : 0.061\nStream size : 628 MiB (69%)\nTitle : Mafiaking\nLanguage : English\nDefault : Yes\nForced : No\n\n\nAudio #1\nID : 2\nFormat : AC-3\nFormat/Info : Audio Coding 3\nMode extension : CM (complete main)\nFormat settings, Endianness : Big\nCodec ID : A_AC3\nDuration : 1h 30mn\nBit rate mode : Constant\nBit rate : 224 Kbps\nChannel(s) : 6 channels\nChannel positions : Front: L C R, Side: L R, LFE\nSampling rate : 48.0 KHz\nBit depth : 16 bits\nCompression mode : Lossy\nStream size : 145 MiB (16%)\nTitle : Mafiaking\nLanguage : Hindi\nDefault : Yes\nForced : No\n\n\nAudio #2\nID : 3\nFormat : AC-3\nFormat/Info : Audio Coding 3\nMode extension : CM (complete main)\nFormat settings, Endianness : Big\nCodec ID : A_AC3\nDuration : 1h 30mn\nBit rate mode : Constant\nBit rate : 192 Kbps\nChannel(s) : 6 channels\nChannel positions : Front: L C R, Side: L R, LFE\nSampling rate : 48.0 KHz\nBit depth : 16 bits\nCompression mode : Lossy\nStream size : 124 MiB (14%)\nTitle : Mafiaking\nLanguage : English\nDefault : No\nForced : No\n\nSAMPLE WITH IN TORRENT\n\nThanks to Mafiaking - TeamTNT!!\n\nSeed n Enjoy!!","torrent":{"xt":"urn:btih:90601bd2f38a8f4d650c9ccfedfbd7081aca63fd","amp;dn":"Brick+Mansions+%282014%29+720p+Blu-Ray+x264+%5BDual-Audio%5D%5BEnglish+DD+","amp;tr":["udp%3A%2F%2Ftracker.openbittorrent.com%3A80","udp%3A%2F%2Fopen.demonii.com%3A1337","udp%3A%2F%2Ftracker.coppersurfer.tk%3A6969","udp%3A%2F%2Fexodus.desync.com%3A6969"],"infoHash":"90601bd2f38a8f4d650c9ccfedfbd7081aca63fd","infoHashBuffer":{"type":"Buffer","data":[144,96,27,210,243,138,143,77,101,12,156,207,237,251,215,8,26,202,99,253]},"announce":[],"urlList":[]}}